<?xml version="1.0" encoding="utf-8"?>
<!-- Generator: Adobe Illustrator 27.2.0, SVG Export Plug-In . SVG Version: 6.00 Build 0)  -->
<svg version="1.1" id="Layer_1" xmlns="http://www.w3.org/2000/svg" xmlns:xlink="http://www.w3.org/1999/xlink" x="0px" y="0px"
	 viewBox="0 0 365 159.7" style="enable-background:new 0 0 365 159.7;" xml:space="preserve">
<style type="text/css">
	.st0{fill:#006838;}
</style>
<g>
	<path class="st0" d="M54.7,26.2l-1.8,1.7v61c0,4.3-1.2,7.8-3.3,10.3c-2.2,2.5-5.6,3.8-10.3,3.8c-9.1,0-13.8-4.1-13.9-12.6H0
		c0,10.5,3.5,19.1,10.3,25.9c5.2,5.3,11.8,8.6,20.2,9.8c0.4,0.1,0.8,0.1,1.3,0.2c2.3,0.3,4.7,0.4,7.3,0.4c12.8,0,22.5-3.5,29.7-10.6
		c7-7.1,10.5-16.1,10.5-27.2V3.4L54.7,26.2z"/>
	<path class="st0" d="M212.7,49.4C206.2,41.1,197.8,37,187,37c-9.9,0-17.6,3.3-23.1,9.8h-0.7V2.5h-0.8l-24.8,23.2v99.5h22.9l2.7-8.3
		h0.7c5.5,6.5,13.1,9.8,23.1,9.8c10.8,0,19.2-4.2,25.7-12.6c6.3-8.3,9.4-19.1,9.4-32.3C222.1,68.6,219,57.9,212.7,49.4z M192.1,98
		c-2.8,4.1-7.1,6.3-12.9,6.3c-5.8,0-10.1-2.2-12.9-6.3c-2.8-4.2-4.1-9.6-4.1-16.2c0-14.9,5.6-22.4,17.1-22.4
		c11.4,0,17.1,7.5,17.1,22.4C196.3,88.4,195,93.8,192.1,98z"/>
	<path class="st0" d="M280.7,37c-10.1,0-17.6,4.6-22.2,14.1h-0.7l-2-12.6h-21.2v86.7h23.9V82.4c0-6.8,1.8-12.3,5.5-16.2
		c3.5-3.8,8.3-5.8,14.4-5.8h8.3V37H280.7z"/>
	<path class="st0" d="M323.4,3.8C320.6,1.3,316.8,0,312,0c-5,0-8.8,1.3-11.4,3.8c-2.7,2.7-4,6.3-4,10.9c0,4.8,1.3,8.5,4,10.9
		c2.6,2.7,6.5,4,11.4,4c4.8,0,8.6-1.3,11.4-4c2.7-2.6,4-6.3,4-10.9C327.4,10.1,326.1,6.5,323.4,3.8z M299.1,64v61.2h25.5V40.1
		L299.1,64z"/>
	<path class="st0" d="M122.4,39.6l-0.2,0.2L97.1,63.2v61.9h25.5V39.4L122.4,39.6z M121.5,3.8c-2.8-2.5-6.6-3.8-11.4-3.8
		c-5,0-8.8,1.3-11.4,3.8c-2.7,2.7-4,6.3-4,10.9c0,4.8,1.3,8.5,4,10.9c2.7,2.7,6.5,4,11.4,4c4.8,0,8.6-1.3,11.4-4
		c2.7-2.6,4-6.3,4-10.9C125.5,10.1,124.2,6.5,121.5,3.8z"/>
	<path class="st0" d="M364.8,2.5l-25.3,23.7v99H365V2.5H364.8z"/>
</g>
<g>
	<path class="st0" d="M234.4,137.9h7.4c3.2,0,5.9,1,8,3c2.1,2,3.1,4.6,3.1,7.8c0,3-1,5.6-3.1,7.6s-4.8,3.1-8,3.1h-7.4V137.9z
		 M241.6,155.1c2.1,0,3.6-0.5,4.8-1.6c1.1-1.1,1.7-2.7,1.7-4.9s-0.6-3.8-1.7-4.8c-1.1-1.1-2.7-1.6-4.8-1.6h-2.6v12.9H241.6z"/>
	<path class="st0" d="M272.8,156.6c-1.8-2.1-2.7-4.7-2.7-7.9c0-3.2,0.9-5.9,2.7-7.9c1.8-2.1,4.4-3.1,7.7-3.1c3.3,0,5.9,1,7.7,3.1
		c1.8,2.1,2.7,4.7,2.7,7.9c0,3.2-0.9,5.9-2.7,7.9s-4.4,3.1-7.7,3.1C277.2,159.7,274.6,158.6,272.8,156.6z M284.6,153.6
		c1-1.1,1.4-2.8,1.4-4.9s-0.5-3.8-1.4-5s-2.3-1.7-4.1-1.7c-1.8,0-3.2,0.6-4.1,1.7c-1,1.1-1.4,2.8-1.4,5s0.5,3.8,1.4,4.9
		c1,1.1,2.3,1.7,4.1,1.7C282.3,155.3,283.7,154.7,284.6,153.6z"/>
	<path class="st0" d="M310.9,156.6c-1.8-2.1-2.7-4.7-2.7-7.9c0-3.2,0.9-5.9,2.7-7.9s4.4-3.1,7.7-3.1c2.7,0,4.9,0.8,6.7,2.4
		s2.7,3.6,2.9,5.9h-4.9c-0.1-1.1-0.6-2.1-1.3-2.9c-0.8-0.8-1.9-1.2-3.3-1.2c-1.8,0-3.1,0.6-4.1,1.7c-1,1.1-1.4,2.8-1.4,5
		s0.5,3.8,1.4,4.9c1,1.1,2.3,1.7,4.1,1.7c1.3,0,2.4-0.4,3.2-1.1c0.8-0.7,1.2-1.6,1.4-2.8h4.9c-0.2,2.3-1.2,4.2-2.9,5.8
		c-1.7,1.6-3.9,2.4-6.6,2.4C315.2,159.7,312.7,158.6,310.9,156.6z"/>
	<path class="st0" d="M347.4,157.6c-1.6-1.3-2.4-3.2-2.5-5.6h4.9c0.1,1.1,0.5,2,1.3,2.5c0.7,0.6,1.7,0.9,2.9,0.9c2.7,0,4-0.7,4-2.2
		c0-0.6-0.2-1.1-0.6-1.4c-0.4-0.3-1.1-0.6-2-0.8l-3.1-0.7c-2.1-0.5-3.7-1.2-4.9-2.1c-1.2-1-1.7-2.4-1.7-4.3c0-1.8,0.8-3.3,2.3-4.4
		s3.6-1.7,6.1-1.7c2.5,0,4.5,0.6,6.1,2c1.6,1.3,2.4,3,2.4,5h-4.9c-0.1-0.8-0.4-1.4-1-1.9c-0.6-0.5-1.5-0.8-2.7-0.8
		c-1.2,0-2,0.2-2.5,0.6c-0.6,0.4-0.8,0.8-0.8,1.3c0,0.5,0.2,0.9,0.5,1.2s1,0.6,1.9,0.8l2.9,0.6c2.2,0.5,4,1.2,5.2,2.2
		c1.2,1,1.8,2.5,1.8,4.4c0,2.1-0.7,3.7-2.2,4.8c-1.4,1.2-3.7,1.8-6.8,1.8C351.2,159.7,349,159,347.4,157.6z"/>
</g>
</svg>
